<?xml version="1.0" encoding="UTF-8" standalone="no"?>
<svg
   xmlns:dc="http://purl.org/dc/elements/1.1/"
   xmlns:cc="http://creativecommons.org/ns#"
   xmlns:rdf="http://www.w3.org/1999/02/22-rdf-syntax-ns#"
   xmlns:svg="http://www.w3.org/2000/svg"
   xmlns="http://www.w3.org/2000/svg"
   xmlns:sodipodi="http://sodipodi.sourceforge.net/DTD/sodipodi-0.dtd"
   xmlns:inkscape="http://www.inkscape.org/namespaces/inkscape"
   width="64"
   height="64"
   viewBox="0 0 16.933333 16.933334"
   version="1.1"
   id="svg8"
   inkscape:version="1.0.1 (3bc2e813f5, 2020-09-07)"
   sodipodi:docname="MGLogo.svg">
  <defs
     id="defs2" />
  <sodipodi:namedview
     id="base"
     pagecolor="#ffffff"
     bordercolor="#666666"
     borderopacity="1.0"
     inkscape:pageopacity="0"
     inkscape:pageshadow="2"
     inkscape:zoom="11.2"
     inkscape:cx="29.594041"
     inkscape:cy="31.589306"
     inkscape:document-units="mm"
     inkscape:current-layer="layer2"
     inkscape:document-rotation="0"
     showgrid="false"
     units="px"
     inkscape:window-width="1842"
     inkscape:window-height="1051"
     inkscape:window-x="-9"
     inkscape:window-y="-9"
     inkscape:window-maximized="1" />
  <metadata
     id="metadata5">
    <rdf:RDF>
      <cc:Work
         rdf:about="">
        <dc:format>image/svg+xml</dc:format>
        <dc:type
           rdf:resource="http://purl.org/dc/dcmitype/StillImage" />
        <dc:title></dc:title>
      </cc:Work>
    </rdf:RDF>
  </metadata>
  <g
     inkscape:groupmode="layer"
     id="layer2"
     inkscape:label="Layer 2">
    <path
       sodipodi:type="star"
       style="fill:#ff6700;fill-opacity:1;stroke-width:0.264583"
       id="path904"
       sodipodi:sides="8"
       sodipodi:cx="8.3154764"
       sodipodi:cy="8.291853"
       sodipodi:r1="4.6810927"
       sodipodi:r2="4.3247657"
       sodipodi:arg1="1.1771698"
       sodipodi:arg2="1.5698689"
       inkscape:flatsided="true"
       inkscape:rounded="0.05"
       inkscape:randomized="0"
       d="m 10.110863,12.614955 c -0.1654377,0.06871 -3.4171863,0.07172 -3.5827515,0.0033 -0.1655651,-0.0684 -2.4670311,-2.3656 -2.5357376,-2.531038 -0.068707,-0.1654382 -0.071722,-3.4171868 -0.00332,-3.5827519 0.068399,-0.1655652 2.3656005,-2.4670312 2.5310385,-2.5357377 0.1654379,-0.068706 3.4171866,-0.071722 3.5827514,-0.00332 0.165565,0.068399 2.467031,2.3656005 2.535738,2.5310385 0.06871,0.165438 0.07172,3.4171866 0.0033,3.5827519 -0.0684,0.165565 -2.365601,2.467031 -2.531039,2.535737 z"
       transform="matrix(1.8936971,0,0,1.8856938,-7.2543404,-7.1786781)" />
  </g>
  <g
     inkscape:label="Layer 1"
     inkscape:groupmode="layer"
     id="layer1">
    <path
       sodipodi:type="star"
       style="fill:#fffe00;fill-opacity:1;stroke-width:0.264583"
       id="path896"
       sodipodi:sides="3"
       sodipodi:cx="8.3390999"
       sodipodi:cy="9.2131691"
       sodipodi:r1="7.4191742"
       sodipodi:r2="4.3031211"
       sodipodi:arg1="2.6181022"
       sodipodi:arg2="3.6652998"
       inkscape:flatsided="false"
       inkscape:rounded="0.1"
       inkscape:randomized="0"
       d="M 1.9135048,12.92206 C 1.5909379,12.363218 4.2900329,7.6199769 4.6127209,7.0612047 4.9354089,6.5024325 7.6946486,1.793925 8.3399035,1.7939949 c 0.645255,7e-5 3.4034745,4.7091754 3.7260415,5.2680175 0.322567,0.5588421 3.020634,5.3026676 2.697946,5.8614396 -0.322688,0.558772 -5.7800025,0.592908 -6.4252574,0.592838 -0.6452549,-7e-5 -6.1025619,-0.03539 -6.4251288,-0.59423 z"
       inkscape:transform-center-x="0.0003906215"
       inkscape:transform-center-y="-1.7308829" />
    <text
       xml:space="preserve"
       style="font-style:normal;font-weight:normal;font-size:10.5833px;line-height:1.25;font-family:sans-serif;fill:#000000;fill-opacity:1;stroke:none;stroke-width:0.264583"
       x="6.2366066"
       y="11.977119"
       id="text900"><tspan
         sodipodi:role="line"
         id="tspan898"
         x="6.2366066"
         y="11.977119"
         style="stroke-width:0.264583">!</tspan></text>
  </g>
</svg>
